<svg xmlns="http://www.w3.org/2000/svg" version="1.0" viewBox="0 0 408 612">
  <path d="M215 146c-2 5-2 7-2 15v9h-4l-14 2-11 1-3-3c-3-4-4-9-3-14 2-5 1-5-2 0-3 6-3 8 0 14l2 5-9 1-18 6c-7 4-9 5-11 4l-6-1-8-1c-8-3-18-1-23 5-3 2-4 4-4 7l-2 6-1 6c0 2 0 3 3 4 2 1 2 1-3 8l-4 9c-1 4-2 5-4 3l-3-1c-3 1-4 0-6-2-4-4-9-4-13 0s-4 4-6 2c-6-5-15 0-15 8v4l-4-1c-7-1-13 7-10 15 1 2 2 4 4 4 4 3 13 5 18 5h4l5 11c8 16 19 29 35 44l22 17c7 6 8 6 8 10 0 3 0 3-3 3-21-5-29-5-35-1-7 5-7 20-1 33 7 13 22 33 28 39 2 2 2 2 1 4-4 5-6 7-12 10s-7 4-9 11c-3 5-6 7-12 7-6-1-8-2-7-5s3-4 5-1c2 2 8 1 8-3l-3-4c-4-6-14-4-21 5l-3 6c0 6 2 10 11 14a53 53 0 0 0 28 5l3-4 4-6c2-2 6-3 8-1 2 3 2 8 1 13l-1 4 16 3 4-7c1-6 2-8 6-12 5-6 6-6 4-11-1-2-1-4 2-10 1-5 2-8 1-11a62 62 0 0 0-10-26l-5-10c-2-1-8-15-8-16 0-3 0-4 3-4 4 0 8 2 14 7 8 7 14 10 31 14 19 4 30 4 46 1 12-2 18-2 24 1 4 2 8 7 8 11 0 3-2 6-11 16l-14 17c-5 7-5 7-4 11 0 4 0 5-2 6-3 2-4 7-2 11 2 1 2 3 0 9l-1 9 17 2 2-7c1-7 3-9 8-9s8 4 8 9c0 7 9 11 24 10 14-1 21-5 24-13 2-5 1-9-2-12-5-5-15-3-15 3 0 2 3 4 5 3l2 1-2 1c-3 2-7 1-14-3-6-2-8-4-9-6l-5-6-4-8c0-4 0-5 3-9a501 501 0 0 0 32-38c2-4 2-5 1-9-3-12-11-20-22-22l-5-2 3-7 3-14v-7l11-6c13-7 27-17 35-26 7-7 7-7 10 4 2 11 2 28-1 35l-3 6-3-2c-3-6-12-7-16-2-3 3-3 4-3 9 0 7 1 8 6 11 16 9 42 12 59 6 13-4 19-9 20-15a1115 1115 0 0 0 5-92c-1-19-1-23-3-30-3-17-12-34-19-35-4-1-7 1-5 2 2 3 1 6-4 11l-5 5v-3l-1-4c-2-1-2-1 1-4 3-2 4-3 1-5v-5c0-3 0-4-2-5l-2-1 2-1c3-3 3-6 0-7-2-1-2-1-1-3 3-3 2-6 0-9l-5-2c-3 1-3 0-3-2 0-3-2-4-6-2-1 1-2 1-3-1-2-2-4-1-5 1l-4 2c-2 0-4 2-4 5s-1 3-3 3c-3 1-4 1-4 3l2 5v4c-2 2-2 4-1 7 2 2 1 3 0 4-3 3-3 4 1 8 3 4 3 5 0 5l-1-1-3-4c-3-3-3-3-2-5 3-3 3-10 1-14-4-6-11-8-20-5-7 2-11 5-14 10l-3 4-3-4c-5-7-11-12-20-16l-8-4 4-7c6-11 9-20 6-20l-1 2c0 3-6 14-10 19l-4 4-3-1-12-4-9-1v-25l1-5-4 6zm-2 28 1 8c0 9 0 10 3 10 4 0 4-2 3-11l-1-9 20 4 3 1-4 6c-5 7-5 8-4 10 2 2 6 0 7-3 1-4 3-9 5-10l14 7c7 4 11 8 14 13 2 4 3 8 1 8l-3 5-2 5-5-4c-7-8-20-10-29-6-5 2-11 8-13 12l-1 3h-31c-2 0-2 0-3-4-2-4-7-8-14-11-8-3-16-3-27 2-2 1-2 1-1-1 2-4 2-14 0-17l-2-3c0-1 13-8 18-9l11-3 7-1 4 5 6 8c1 4 2 5 5 4l2-2-9-13-3-3 2-1 21-2c4 0 5 0 5 2zm125-1c0 1-1 12-3 15-1 2-2-8-1-12 0-4 2-5 4-3zm7 2-8 14 4-15 3-2 1 3zm-13 10 1 7c-1 1-5-8-5-12 0-7 3-4 4 5zm20-8c3 2 2 5-1 8l-14 9 10-16c2-2 3-3 5-1zm-23 13c3 8 4 11 1 9l-6-7c-5-6-5-9-1-9 2 0 3 2 6 7zm-200-1c5 6 3 11-4 10-4 0-5 0-7 2s-2 3 0 14c0 2 0 4-2 5-6 7-6 14 1 14 3 0 3 0 2 5 0 4-3 5-11 6-6 1-10-1-13-5-4-6-3-11 5-22 6-8 6-11 3-16-3-6-3-10 3-13 5-3 8-4 14-4 6 1 7 1 9 4zm178 0c5 1 8 6 8 11 0 4-1 5-5 8-13 12-13 12-8 19 6 7 5 14-3 20-4 2-5 3-10 3-7 0-12-3-12-6s0-3 5-2c3 0 5 0 8-2 3-3 4-6 2-10-3-4-2-6 1-10l3-7c0-3-1-3-4-4l-7 2-3 3c-2 0-1-11 0-14 2-5 8-10 13-11h12zm49 2-2 3-18 10c-1-1 2-6 5-8l13-7 2 2zm-31 6c3 3 5 6 6 10 1 3 1 3-4-1-4-5-7-10-6-11 1-2 1-1 4 2zm-187 1c2 0 4 5 4 10l-3 10c-2 3-3 8-3 10 0 5 5 12 10 16 4 2 5 2 15 2 10 1 11 0 16-2 3-2 6-5 7-8l3-4h11l16-1c6 0 6 0 7 5 2 8 13 14 24 14 7 1 8 0 13-3 8-6 11-9 13-18 2-7 5-14 7-14s1 17-2 26a89 89 0 0 1-77 53c-18 0-32-5-52-19-12-8-17-13-21-22-3-6-3-7-3-19 0-17 2-26 7-32 3-5 4-6 7-4zm218 4-9 6c-8 4-11 5-11 3l10-10c4-1 10-1 10 1zm-230 0-2 6-3 13c-1 9-3 13-6 11s-2-6 1-10c4-4 5-7 4-10-2-2-2-6-1-9 1-2 5-3 7-1zm200 6 5 10c0 1-9-5-11-8-2-2-2-3-1-4 2-2 4-1 7 2zm49 3c2 1 5 7 8 13l7 21a357 357 0 0 1 0 76l-2 27c-1 12-2 16-5 18l-1 1c4-1 0 3-5 5-8 5-15 6-31 6-15 0-16 0-23-2-9-4-16-8-17-10h2c2 3 8 3 11 2 5-2 11-11 13-18 2-6 2-9 2-18l-2-17-3-9-1-5 5-6 5-7 3-7c4-5 5-6 6-5 2 1 3 5 2 7l1 1c1-1 2 1 4 5 4 8 6 9 10 6v-1l-2-1-3-6-2-4c1-1 1-1-1-1h-2l-1-3h3c4 2 8 2 13-1l5-1v-1l-1-3-2-5c-3-2-3-3-1-4 3-3 3-9 0-11-2-2-8-4-8-3l-1-2c0-4-3-9-7-11-3-1-4-2-3-4l4-4 15-14 1-5c0-3 1-3 4 1zm-19-1-3 4c-2 2-16 6-17 6l12-9c4-2 8-2 8-1zm-62 1c1 2 1 3-1 5l-4 5c-2 3-2 4 0 8 5 6 0 12-7 11l-4-1 2-9 2-11c0-3 3-6 7-8h5zm-37 5c5 3 7 8 5 15s-6 10-12 12-11 0-16-4c-6-5-7-10-2-18 3-5 5-6 11-7s8 0 14 2zm-83 0c9 6 10 13 3 19-4 3-10 6-16 6l-6-2c-3-2-4-3-6-7v-7c3-6 7-10 10-10 7-1 12-1 15 1zm135 2c0 4 6 6 9 3h2l3 4c2 3 2 3 0 3-4-1-5 0-5 3l-1 5-2 6c-1 5 0 9 4 14l2 5c0 2-16 24-22 30l-4 4-1-5c-1-7-2-11-6-16-6-8-10-12-17-12h-5l4-6 4-7 5 1c5 3 17 3 21 0 8-6 10-15 6-22-3-5-4-8-1-11 2-2 4-2 4 1zm19 3c1 2 2 3 3 2v5l1 3c-1 0-9-7-9-9-2-5 2-5 5-1zm26-2c2 3-6 9-13 10h-5l5-5c2-2 5-5 7-5h6zm-1 9-2 1v-2l1-1 1 2zm-276 2c1 1 2 2 2 5v3l2-2c3-2 7-3 9-1l2 4c0 4-2 9-7 14-3 3-25 12-28 12-6 0-20-4-22-7-7-7 0-18 9-13l3 2v-6c0-6 0-6 3-8 5-3 7-3 11 1l4 4 1-3c0-3 2-5 5-6s4-1 6 1zm249 0c2 1 4 3 5 6l2 5c-1 0-11-6-12-8l2-4 3 1zm23 2c-1 3-12 8-12 5 1-2 6-6 9-6l3 1zm-24 7 4 2h-3c-3 0-3 0-3 3 0 2 2 3 4 5 3 2 4 3 3 4-2 1 0 4 4 6l5 2c2 0 6 7 6 9-1 1-17-7-21-10-5-5-8-17-4-20 2-2 1-2 5-1zm28 1c4 4 5 8 2 11-4 4-3 5 1 3 7-2 13-1 13 4 0 3-3 6-6 6-6 0-5 1 0 3 7 3 8 5 6 8l-9 1c-8 1-9 0-12-9-3-6-3-6-1-8 3-3 4-9 2-11v-9c-2-2 2-1 4 1zm-6 2-1 2-3 3c-2 3-2 3-2 1l2-5c1-2 4-3 4-1zm-14 3 3 6-4-1c-7-3-9-8-5-8l6 3zm-236-1c4 4 14 4 21 1l4 5c1 3 2 7 4 9l2 3-6 4c-6 4-12 10-15 16l-3 4c-2-1-7-9-13-20l-5-10 4-7 5-6 2 1zm251 7-5 5v-4c1-2 3-3 5-1zm-11 5c3 2 3 3 2 3-3 0-8-3-8-5s3-1 6 2zm-251 2c0 3 9 20 13 26l5 8 5 18 7 8c5 4 8 6 12 7l6 2-2 3-3 6c-1 6-1 6-9 1l-11-8-12-11c-10-9-24-25-29-33l-8-19 5-2 17-7c3-1 4-1 4 1zm247 9 9 6c1 1 0 4-6 12-17 26-34 41-54 50l-10 5-1-3c-1-2-2-5-4-6l-2-4 6-1 8-3c3-2 10-12 13-19 3-5 4-7 17-22l10-14 5-5 9 4zm-65 10-4 1-8 1c-8 3-8 2 0-1 6-2 13-3 12-1zm-143 15c0 2-2 6-6 11l-3 5-1 2c-1 0-3-4-2-7l-2-6c-3-4-3-4-1-12l2-7 7 6 6 8zm18-8c1 1 1 1-1 1-3 0-12-3-11-4 0-1 9 1 12 3zm147 3c0 4-2 8-4 7-3-1-2-5 0-10 3-4 4-4 4 3zm-27-4a693 693 0 0 0 1-1c4 0 4 0-1 1zm-103 9 2 2-4-2h2zm106 1-9 1 5-1h4zm-47 2-1 2v4c0 3-2 6-5 6l-8-1h-20c-1-1-1-2 1-6l1-5 11 1 15-1h6zm34 11c5 1 6 2 3 2-4 0-15-2-16-4l13 2zm-115 3h-2v-1l2 1zm30 2-11 5c-2 0 2-2 7-6 6-3 7-3 4 1zm12 5-10 14a118 118 0 0 0-10 11l7-14c4-7 15-18 16-18l-3 7zm75 2c11 5 12 5 25 0l-1 2c-4 4-12 5-20 4l-15-1c-8 0-10 0-13-2-5-3-8-6-4-4 3 1 9 1 11-1 4-2 10-1 17 2zm-89 7c-4 5-6 10-8 19l-5 14-3 9 9-4 9-4 2 7 3 8c1 1 7-10 14-24 3-5 3-5 6 6 1 6 3 10 6 15l4-7c6-11 6-11 11-7l6 5c9 7 9 8 10 7s2-7 1-18c0-16 0-21-3-28-1-2 0-1 4 1 5 4 6 4 19 2 8 0 11 1 15 6 6 8 6 19 2 31-7 18-22 26-53 31a142 142 0 0 1-61-9l-12-10c-6-6-7-8-10-15-4-11-4-22 1-29l3-2 4 2c7 3 14 1 24-8 5-4 6-4 2 2zm63 15 1 17v7l-1-6-2-16-1-13c-1-2-1-2 0 0l3 11zm-33 11 2 9c1 4 1 4-1 2l-4-13c0-5 1-4 3 2zm-80 0c13 2 12 2 14 7 0 3 2 7 4 10l2 4-5-1-6 1c-2 2-2 2 2 11l9 16c6 10 11 24 12 30v5l-26-9c-10-5-32-38-35-54-4-18 5-24 29-20zm203 3c3 2 3 8 0 11-2 2-4 2-8 0-6-2-8-8-3-13 2-2 8-1 11 2zm-38 24c7 6 11 12 11 19 0 6-2 9-11 19l-16 18-9 12-16 2h-14l6-8 15-17c9-10 12-15 11-19-1-3-7-8-13-11l-5-2 8-4 13-9 5-5 7 2 8 3z"/>
  <path d="m206 255 1 2c1 1 3-1 3-2h-4zm-10 2 2 1c2-1 2-2 0-3l-2 2z"/>
  <path d="M234 256c-2 1-1 2 2 2h2l-2 4c-5 7-19 15-28 16-6 0-16-1-22-4-5-2-17-10-17-11s1-2 3-2c3-2 3-4-2-4l-6 3-3 4c0 2 2 5 3 4 1-4 2-4 5-1 6 5 15 10 23 12 17 5 30 1 43-12 6-6 7-7 8-5 0 3 2 3 2 0s-4-7-8-7l-3 1zm139-27 2 1-2-1c-1-1-1-1 0 0zm-13 7h2c1-1 0-1-1-1s-2 0-1 1zm20 3h-2l-1 1h3l1-2-1 1zm-5 2-3 1h-1c-1 1 3 1 4-1l1-1-2 1zm3 10-3 1h-1 4l3-1c1-1 1-1-1-1l-3 1zm-1 13-1 1 2-1c2-2 1-2-1 0zm0 10 1 1c2 0 3-1 1-1h-2zm-1 14 1 1-1-1c-1-1-1-1 0 0zm-36 1h1v-1l-1 1zm3 12c-1 1-3 2-4 1-2 0-2 0-1 1 2 1 3 1 4-1 2-1 3-2 5-1v-1c-2-1-2-1-4 1zm42 0h-5v1h3l3-1 1-2-2 2zm-13 4-1 1 3-1c2-2 1-2-2 0zm-15 3-1 2 2-1 2-3-3 2zm-8 2c-1 2-2 2-3 1l-1-1v2c2 1 2 1 5-1 3-4 2-4-1-1zm22 7v1h3l-1-2c0-1-1-1-2 1zm5 0h5v-1h-1c0-1-1-1-4 1zm-11 2h3v-1h-2l-1-1v2zm-4 1-3 1-1 1h2l4-4-2 2zm-15 5c2 1 2 1 4-1 1-1 1-1 0 0h-3l-1-1v2zm29 6c-1 1-1 1 0 0h2l1 1v-1c0-2-1-2-3 0zm7-1h2l-1-1-1 1zm-10 1 1 2-1-2c-1-1-1-1 0 0zm-9 2-1 1 4-1h2l-2-1-3 1zm-15 2 1 1h3c1 1 1 1 0 0-1-2-3-3-4-1zm-7 3 3 1c3-1 4-2 0-2l-3 1zm39 1h2l-2-1v1zm-12 1h7l-4-1-4 1zm-5 2h1l2-2-3 2zm-9 0 2 1-1-1h-1zm-4 1-1 1 2-1h-1zm0 4-1 3-1 2-1-1-2-1c-1 1-2 0-3-1-3-4-4-1-2 2 2 4 4 5 4 3h2l2 1c2 0 4-6 4-8v-3l-2 3zm7 0-2 4c0 2 1 2 4 2s4 0 4-2h-1l-3 1c-3 0-2-3 1-3 2 0 2 0 1-1-3 0-2-2 0-2l2 1h1c2-1 1-2-3-2-3 0-4 0-4 2zm17-1 1 1h1c0 2 1 2 4 0h3v-1h-3l-3 1c0-2-2-3-3-1zm2 9-5 7-4 6-1 3c1 1 17-15 17-17 0-3-4-2-7 1zm-13 4c0 4 1 5 4 5 2 0 2 0 1-1l-1-2c3-1 2-4 0-4l-4 2zm4-1-1 1h-1l1-1h1zm-31 3c-2 3-2 6 0 6l3-1c1-2 1-2-1-1-2 0-3-1 0-4v-3s-2 1-2 3zm7 1v4c3 3 8-1 7-4s-6-2-7 0zm5 1-1 2-2-2 2-2 1 2zm6 0c2 3 3 3 4 0v-2h-2c-2-2-3-1-2 2zm0 5c-2 1-2 2-1 4s1 2-1 2h-2c0 2 2 2 5 2 2-1 3-4 1-5l-2-1 2-1h1c0-2-2-2-3-1zm-13 2c-3 4-2 6 2 7 3 0 6-1 3-2v-2c1-3 0-4-2-2l-2 2v-1l1-3-2 1zm-16 2 1 2v-3c0-3-1-2-1 1zm6-2c-1 1 0 3 2 3v-1l-1-2-1-1zm31 3 1 2c1 1 4 0 4-2h-5zM234 225c-2 3-2 4 0 6 4 4 11 1 11-3 0-5-7-7-11-3zm5 0-2 3c-1 2-1 2-2 1s-1-2 1-3l4-2-1 1zm-70-2c-5 4-4 10 2 10 7 0 11-7 6-10-3-2-5-2-8 0zm7 1-1 1c-2 0-4 3-4 5l-1 1c-2 0-2-3-1-6 2-2 7-3 7-1zm38 74-6 3c-3 1-3 1-1 1 3 0 7-2 9-4s1-2-2 0zm-23 2-3 3c0 2 3 2 7-1l6-3c2-1 2-1-3-1l-7 2zm13 67c-3 2-4 5-4 10 0 3 0 3 4 3 5-1 10-5 11-8 0-2 0-3-2-5-4-2-6-3-9 0z"/>
</svg>
